<svg id="svg" xmlns="http://www.w3.org/2000/svg" xmlns:xlink="http://www.w3.org/1999/xlink" width="400" height="400" viewBox="0, 0, 400,400"><g id="svgg"><path id="path0" d="M39.600 173.600 L 39.600 347.200 56.000 347.200 L 72.400 347.200 72.400 364.000 L 72.400 380.800 200.800 380.800 C 286.133 380.800,329.200 380.934,329.200 381.200 C 329.200 381.420,329.560 381.600,330.000 381.600 C 330.440 381.600,330.800 381.780,330.800 382.000 C 330.800 382.581,333.091 382.492,333.367 381.900 C 333.553 381.500,333.647 381.500,333.833 381.900 C 334.109 382.492,336.400 382.581,336.400 382.000 C 336.400 381.776,337.500 381.600,338.900 381.600 L 341.400 381.600 341.286 258.773 L 341.172 135.945 336.781 131.673 C 334.367 129.323,330.728 125.735,328.695 123.699 C 320.633 115.624,315.050 110.048,311.901 106.926 C 310.086 105.125,308.375 103.378,308.100 103.043 C 307.706 102.563,307.600 91.599,307.600 51.217 L 307.600 0.000 173.600 0.000 L 39.600 0.000 39.600 173.600 M292.800 51.281 C 292.800 86.493,292.768 88.121,292.100 87.236 C 291.715 86.727,289.375 84.305,286.900 81.855 C 284.425 79.405,280.735 75.735,278.700 73.699 C 273.787 68.785,264.930 59.928,253.802 48.800 C 251.052 46.050,247.136 42.142,245.101 40.115 C 243.065 38.089,240.590 35.534,239.600 34.437 L 237.800 32.444 155.100 32.422 L 72.400 32.400 72.400 182.400 L 72.400 332.400 63.400 332.400 L 54.400 332.400 54.400 173.400 L 54.400 14.400 173.600 14.400 L 292.800 14.400 292.800 51.281 M226.400 97.200 L 226.400 147.200 276.400 147.200 L 326.400 147.200 326.400 250.800 C 326.400 319.600,326.266 354.400,326.000 354.400 C 325.753 354.400,325.600 356.467,325.600 359.800 L 325.600 365.200 320.000 365.200 C 316.533 365.200,314.400 365.352,314.400 365.600 C 314.400 365.866,276.267 366.000,200.800 366.000 L 87.200 366.000 87.200 206.600 L 87.200 47.200 156.800 47.200 L 226.400 47.200 226.400 97.200 M242.800 60.845 C 243.350 61.517,246.747 65.000,250.348 68.585 C 253.949 72.171,257.616 75.824,258.496 76.704 C 259.376 77.584,263.066 81.274,266.696 84.904 C 274.864 93.070,275.730 93.936,283.896 102.104 C 287.526 105.734,291.216 109.424,292.096 110.304 C 292.976 111.184,296.642 114.851,300.243 118.452 C 303.844 122.053,307.557 125.764,308.495 126.698 C 311.289 129.481,313.600 131.967,313.600 132.191 C 313.600 132.306,297.310 132.400,277.400 132.400 L 241.200 132.400 241.200 96.000 C 241.200 75.980,241.335 59.605,241.500 59.612 C 241.665 59.619,242.250 60.173,242.800 60.845 M105.200 74.029 C 105.200 74.602,105.415 74.817,105.895 74.725 C 106.938 74.524,107.054 73.200,106.029 73.200 C 105.457 73.200,105.200 73.457,105.200 74.029 M210.000 84.000 C 210.000 84.444,210.267 84.800,210.600 84.800 C 210.933 84.800,211.200 84.444,211.200 84.000 C 211.200 83.556,210.933 83.200,210.600 83.200 C 210.267 83.200,210.000 83.556,210.000 84.000 M103.600 84.800 C 103.600 85.333,103.867 85.600,104.400 85.600 C 104.933 85.600,105.200 85.333,105.200 84.800 C 105.200 84.267,104.933 84.000,104.400 84.000 C 103.867 84.000,103.600 84.267,103.600 84.800 M177.600 84.800 C 177.600 85.333,177.867 85.600,178.400 85.600 C 178.933 85.600,179.200 85.333,179.200 84.800 C 179.200 84.267,178.933 84.000,178.400 84.000 C 177.867 84.000,177.600 84.267,177.600 84.800 M136.400 86.000 C 136.400 86.220,135.680 86.400,134.800 86.400 C 133.467 86.400,133.200 86.533,133.200 87.200 C 133.200 87.733,133.467 88.000,134.000 88.000 C 134.440 88.000,134.800 88.180,134.800 88.400 C 134.800 88.620,135.160 88.800,135.600 88.800 C 136.040 88.800,136.400 88.620,136.400 88.400 C 136.400 88.180,136.863 88.000,137.429 88.000 C 138.586 88.000,139.600 87.173,139.600 86.229 C 139.600 85.762,139.188 85.600,138.000 85.600 C 137.120 85.600,136.400 85.780,136.400 86.000 M144.800 91.800 C 144.800 92.488,144.083 92.564,142.666 92.025 C 141.828 91.707,141.643 91.782,141.434 92.525 C 141.194 93.376,141.171 93.379,140.604 92.639 C 140.032 91.891,140.017 91.891,139.730 92.638 C 139.304 93.747,137.728 95.213,137.122 95.062 C 136.835 94.990,136.735 95.007,136.900 95.099 C 137.594 95.487,137.127 96.033,136.300 95.801 C 135.645 95.616,135.554 95.654,135.965 95.937 C 136.446 96.270,136.435 96.422,135.893 96.964 C 135.092 97.765,134.644 97.782,134.945 97.000 C 135.111 96.567,134.901 96.400,134.187 96.400 C 133.467 96.400,133.200 96.616,133.200 97.200 C 133.200 97.640,132.999 98.000,132.753 98.000 C 132.486 98.000,132.388 98.425,132.508 99.055 C 132.771 100.427,129.385 104.088,128.719 103.154 C 128.414 102.726,128.377 102.762,128.555 103.313 C 128.778 104.004,122.529 110.800,121.671 110.800 C 120.949 110.800,116.000 105.249,116.000 104.439 C 116.000 103.457,115.393 103.321,115.046 104.225 C 114.914 104.569,114.612 104.731,114.376 104.585 C 114.139 104.439,114.035 104.085,114.145 103.799 C 114.453 102.995,113.971 102.772,113.324 103.419 C 112.568 104.175,111.600 104.164,111.600 103.400 C 111.600 103.027,111.222 102.800,110.600 102.800 C 109.943 102.800,109.600 103.023,109.600 103.451 C 109.600 103.984,109.317 104.057,108.042 103.853 C 106.892 103.669,106.427 103.753,106.266 104.171 C 106.134 104.517,105.728 104.654,105.224 104.522 C 104.690 104.383,104.398 104.499,104.394 104.853 C 104.389 105.280,104.303 105.268,104.000 104.800 C 103.686 104.315,103.611 104.372,103.606 105.100 C 103.601 105.920,103.190 106.202,102.252 106.031 C 102.061 105.997,101.985 106.515,102.083 107.184 C 102.209 108.040,102.097 108.400,101.706 108.400 C 101.275 108.400,101.211 108.802,101.421 110.200 C 101.646 111.701,101.584 112.000,101.045 112.000 C 100.690 112.000,100.400 112.270,100.400 112.600 C 100.400 112.933,100.756 113.200,101.200 113.200 C 102.159 113.200,102.202 113.650,101.390 115.220 C 100.811 116.339,100.821 116.400,101.590 116.400 C 102.532 116.400,102.677 117.119,101.802 117.454 C 101.474 117.581,101.306 117.848,101.430 118.048 C 101.554 118.249,101.831 118.304,102.046 118.172 C 102.773 117.723,116.435 131.644,116.183 132.578 C 115.985 133.312,116.009 133.325,116.401 132.700 C 117.098 131.588,118.131 131.804,117.899 133.014 C 117.721 133.946,117.761 133.979,118.384 133.414 C 119.240 132.640,119.600 132.636,119.600 133.400 C 119.600 134.318,123.530 134.234,124.256 133.300 C 124.770 132.638,124.834 132.644,125.426 133.400 C 126.032 134.174,126.044 134.166,125.794 133.144 C 125.526 132.052,126.132 131.242,126.622 132.036 C 126.820 132.356,126.994 132.333,127.227 131.957 C 128.406 130.049,152.684 106.381,153.298 106.541 C 153.684 106.642,154.087 106.582,154.195 106.408 C 154.303 106.234,154.033 105.997,153.596 105.883 C 152.572 105.615,152.569 104.786,153.590 104.518 C 154.230 104.351,154.303 104.166,153.972 103.548 C 153.503 102.671,153.785 102.000,154.624 102.000 C 155.411 102.000,155.390 99.758,154.600 99.455 C 153.880 99.179,153.812 97.948,154.480 97.280 C 154.853 96.907,154.757 96.800,154.047 96.800 C 153.485 96.800,153.204 96.608,153.317 96.300 C 153.417 96.025,153.716 95.849,153.980 95.910 C 154.244 95.970,154.345 95.835,154.206 95.610 C 154.067 95.384,153.674 95.200,153.334 95.200 C 152.938 95.200,152.801 94.976,152.953 94.579 C 153.090 94.221,153.023 94.062,152.792 94.205 C 152.326 94.493,151.478 93.723,151.067 92.639 C 150.783 91.890,150.768 91.890,150.196 92.639 C 149.629 93.379,149.606 93.376,149.366 92.525 C 149.157 91.782,148.972 91.707,148.134 92.025 C 146.717 92.564,146.000 92.488,146.000 91.800 C 146.000 91.470,145.730 91.200,145.400 91.200 C 145.070 91.200,144.800 91.470,144.800 91.800 M131.600 93.000 C 131.600 93.733,131.813 94.000,132.400 94.000 C 132.987 94.000,133.200 93.733,133.200 93.000 C 133.200 92.267,132.987 92.000,132.400 92.000 C 131.813 92.000,131.600 92.267,131.600 93.000 M134.000 93.400 C 134.000 93.733,134.356 94.000,134.800 94.000 C 135.244 94.000,135.600 93.733,135.600 93.400 C 135.600 93.067,135.244 92.800,134.800 92.800 C 134.356 92.800,134.000 93.067,134.000 93.400 M120.800 104.400 C 120.800 104.933,121.067 105.200,121.600 105.200 C 122.133 105.200,122.400 104.933,122.400 104.400 C 122.400 103.867,122.133 103.600,121.600 103.600 C 121.067 103.600,120.800 103.867,120.800 104.400 M182.400 185.600 C 182.400 186.311,182.667 186.400,184.800 186.400 C 186.933 186.400,187.200 186.311,187.200 185.600 C 187.200 184.889,186.933 184.800,184.800 184.800 C 182.667 184.800,182.400 184.889,182.400 185.600 M95.600 192.600 L 95.600 198.000 205.800 198.000 L 316.000 198.000 316.000 192.600 L 316.000 187.200 205.800 187.200 L 95.600 187.200 95.600 192.600 M95.600 211.400 L 95.600 216.800 205.800 216.800 L 316.000 216.800 316.000 211.400 L 316.000 206.000 205.800 206.000 L 95.600 206.000 95.600 211.400 M95.600 231.000 L 95.600 236.400 132.800 236.400 C 157.333 236.400,170.000 236.536,170.000 236.800 C 170.000 237.020,170.720 237.200,171.600 237.200 C 172.933 237.200,173.200 237.333,173.200 238.000 C 173.200 238.533,173.467 238.800,174.000 238.800 C 174.533 238.800,174.800 238.533,174.800 238.000 C 174.800 237.560,174.620 237.200,174.400 237.200 C 174.180 237.200,174.000 237.020,174.000 236.800 C 174.000 236.540,179.333 236.400,189.200 236.400 C 199.067 236.400,204.400 236.540,204.400 236.800 C 204.400 237.020,204.940 237.200,205.600 237.200 C 206.260 237.200,206.800 237.020,206.800 236.800 C 206.800 236.535,225.267 236.400,261.400 236.400 L 316.000 236.400 316.000 231.000 L 316.000 225.600 205.800 225.600 L 95.600 225.600 95.600 231.000 M208.400 240.400 C 208.400 240.987,208.667 241.200,209.400 241.200 C 210.133 241.200,210.400 240.987,210.400 240.400 C 210.400 239.813,210.133 239.600,209.400 239.600 C 208.667 239.600,208.400 239.813,208.400 240.400 M95.600 249.000 L 95.600 254.400 205.800 254.400 L 316.000 254.400 316.000 249.000 L 316.000 243.600 205.800 243.600 L 95.600 243.600 95.600 249.000 M195.600 266.800 C 195.600 267.556,195.867 267.600,200.400 267.600 C 204.933 267.600,205.200 267.556,205.200 266.800 C 205.200 266.044,204.933 266.000,200.400 266.000 C 195.867 266.000,195.600 266.044,195.600 266.800 M206.000 266.800 C 206.000 267.448,206.267 267.600,207.400 267.600 C 208.533 267.600,208.800 267.448,208.800 266.800 C 208.800 266.152,208.533 266.000,207.400 266.000 C 206.267 266.000,206.000 266.152,206.000 266.800 M171.600 270.000 C 171.600 270.533,171.867 270.800,172.400 270.800 C 172.933 270.800,173.200 270.533,173.200 270.000 C 173.200 269.467,172.933 269.200,172.400 269.200 C 171.867 269.200,171.600 269.467,171.600 270.000 M288.000 287.200 C 288.000 287.733,288.267 288.000,288.800 288.000 C 289.333 288.000,289.600 287.733,289.600 287.200 C 289.600 286.667,289.333 286.400,288.800 286.400 C 288.267 286.400,288.000 286.667,288.000 287.200 M298.000 328.400 C 298.000 328.933,298.267 329.200,298.800 329.200 C 299.333 329.200,299.600 328.933,299.600 328.400 C 299.600 327.867,299.333 327.600,298.800 327.600 C 298.267 327.600,298.000 327.867,298.000 328.400 M308.400 339.600 C 308.400 340.044,308.667 340.400,309.000 340.400 C 309.333 340.400,309.600 340.044,309.600 339.600 C 309.600 339.156,309.333 338.800,309.000 338.800 C 308.667 338.800,308.400 339.156,308.400 339.600 M311.200 342.429 C 311.200 343.066,312.253 344.000,312.971 344.000 C 313.375 344.000,313.600 343.642,313.600 343.000 C 313.600 342.156,313.413 342.000,312.400 342.000 C 311.740 342.000,311.200 342.193,311.200 342.429 M323.200 353.429 C 323.200 354.147,324.134 355.200,324.771 355.200 C 325.246 355.200,325.330 354.404,324.957 353.433 C 324.642 352.611,323.200 352.607,323.200 353.429 M321.600 357.229 C 321.600 358.849,322.938 358.732,323.127 357.097 C 323.228 356.214,323.092 356.000,322.427 356.000 C 321.770 356.000,321.600 356.253,321.600 357.229 M320.800 360.800 C 320.800 361.020,320.440 361.200,320.000 361.200 C 319.333 361.200,319.200 361.467,319.200 362.800 L 319.200 364.400 320.800 364.400 L 322.400 364.400 322.400 362.400 C 322.400 360.667,322.293 360.400,321.600 360.400 C 321.160 360.400,320.800 360.580,320.800 360.800 M312.800 364.400 C 312.800 364.933,313.067 365.200,313.600 365.200 C 314.133 365.200,314.400 364.933,314.400 364.400 C 314.400 363.867,314.133 363.600,313.600 363.600 C 313.067 363.600,312.800 363.867,312.800 364.400 M344.800 380.000 C 344.800 380.533,345.067 380.800,345.600 380.800 C 346.133 380.800,346.400 380.533,346.400 380.000 C 346.400 379.467,346.133 379.200,345.600 379.200 C 345.067 379.200,344.800 379.467,344.800 380.000 M342.800 381.600 C 342.800 382.044,343.067 382.400,343.400 382.400 C 343.733 382.400,344.000 382.044,344.000 381.600 C 344.000 381.156,343.733 380.800,343.400 380.800 C 343.067 380.800,342.800 381.156,342.800 381.600 M351.200 381.600 C 351.200 382.222,351.467 382.400,352.400 382.400 C 353.333 382.400,353.600 382.222,353.600 381.600 C 353.600 380.978,353.333 380.800,352.400 380.800 C 351.467 380.800,351.200 380.978,351.200 381.600 M349.600 399.400 C 349.600 399.889,350.267 400.000,353.200 400.000 C 356.133 400.000,356.800 399.889,356.800 399.400 C 356.800 398.911,356.133 398.800,353.200 398.800 C 350.267 398.800,349.600 398.911,349.600 399.400 " stroke="none" fill="#fcfcfc" fill-rule="evenodd"></path><path id="path1" d="M142.800 91.557 C 142.800 92.024,143.968 92.467,144.436 92.178 C 145.141 91.742,144.788 91.200,143.800 91.200 C 143.250 91.200,142.800 91.361,142.800 91.557 M146.077 91.630 C 146.156 91.867,146.351 92.047,146.510 92.030 C 146.669 92.014,147.070 92.000,147.400 92.000 C 147.730 92.000,148.000 91.820,148.000 91.600 C 148.000 91.380,147.535 91.200,146.967 91.200 C 146.398 91.200,145.998 91.394,146.077 91.630 M154.480 97.680 C 153.813 98.347,153.880 99.200,154.600 99.200 C 154.973 99.200,155.200 98.822,155.200 98.200 C 155.200 97.060,155.142 97.018,154.480 97.680 M154.071 103.067 C 154.265 104.070,155.200 104.208,155.200 103.233 C 155.200 102.742,154.942 102.400,154.571 102.400 C 154.198 102.400,153.994 102.672,154.071 103.067 M107.600 103.157 C 107.600 103.624,108.768 104.067,109.236 103.778 C 109.941 103.342,109.588 102.800,108.600 102.800 C 108.050 102.800,107.600 102.961,107.600 103.157 M112.000 103.225 C 112.000 103.680,113.075 103.727,113.349 103.283 C 113.456 103.109,113.197 102.940,112.772 102.908 C 112.348 102.876,112.000 103.019,112.000 103.225 M153.292 105.275 C 153.539 106.017,154.400 106.140,154.400 105.433 C 154.400 105.085,154.115 104.800,153.767 104.800 C 153.418 104.800,153.205 105.014,153.292 105.275 M116.800 105.397 C 116.800 105.792,121.637 110.496,121.838 110.296 C 121.951 110.182,120.964 108.989,119.644 107.645 C 117.422 105.381,116.800 104.889,116.800 105.397 M152.539 106.915 C 152.286 107.182,147.876 111.568,142.739 116.662 C 130.619 128.682,127.440 131.973,127.700 132.233 C 127.911 132.445,135.393 125.379,139.341 121.241 C 140.473 120.053,144.145 116.328,147.500 112.963 C 150.855 109.598,153.600 106.745,153.600 106.623 C 153.600 106.246,153.024 106.405,152.539 106.915 M100.400 110.800 C 100.400 111.244,100.667 111.600,101.000 111.600 C 101.673 111.600,101.700 111.527,101.357 110.633 C 101.014 109.739,100.400 109.846,100.400 110.800 M100.400 114.200 C 100.400 115.317,100.984 115.541,101.357 114.567 C 101.741 113.566,101.646 113.200,101.000 113.200 C 100.627 113.200,100.400 113.578,100.400 114.200 M105.284 121.991 C 109.151 125.712,109.248 125.809,112.422 129.145 C 113.754 130.544,114.942 131.591,115.062 131.471 C 115.287 131.246,114.612 130.497,109.705 125.530 C 105.511 121.285,102.797 118.800,102.355 118.800 C 102.142 118.800,103.460 120.236,105.284 121.991 M125.600 132.600 C 125.600 132.930,125.870 133.200,126.200 133.200 C 126.530 133.200,126.800 132.930,126.800 132.600 C 126.800 132.270,126.530 132.000,126.200 132.000 C 125.870 132.000,125.600 132.270,125.600 132.600 M116.628 132.755 C 116.434 133.068,117.118 133.415,118.700 133.806 C 118.975 133.874,119.200 133.746,119.200 133.522 C 119.200 133.298,118.930 133.218,118.600 133.345 C 118.235 133.485,118.000 133.345,118.000 132.987 C 118.000 132.350,116.984 132.178,116.628 132.755 " stroke="none" fill="#b4b4b4" fill-rule="evenodd"></path><path id="path2" d="" stroke="none" fill="#e8100d8" fill-rule="evenodd"></path><path id="path3" d="" stroke="none" fill="#e8100d8" fill-rule="evenodd"></path><path id="path4" d="" stroke="none" fill="#e8100d8" fill-rule="evenodd"></path></g></svg>