<svg id="svg" xmlns="http://www.w3.org/2000/svg" xmlns:xlink="http://www.w3.org/1999/xlink" width="400" height="400" viewBox="0, 0, 400,400"><g id="svgg"><path id="path0" d="M39.600 173.600 L 39.600 347.200 56.000 347.200 L 72.400 347.200 72.400 364.000 L 72.400 380.800 200.767 380.800 C 276.437 380.800,329.188 380.948,329.267 381.160 C 329.432 381.606,331.337 381.728,337.000 381.656 L 341.400 381.600 341.286 258.773 L 341.172 135.945 336.781 131.673 C 334.367 129.323,330.728 125.735,328.695 123.699 C 320.633 115.624,315.050 110.048,311.901 106.926 C 310.086 105.125,308.375 103.378,308.100 103.043 C 307.706 102.563,307.600 91.599,307.600 51.217 L 307.600 0.000 173.600 0.000 L 39.600 0.000 39.600 173.600 M292.800 51.281 C 292.800 86.493,292.768 88.121,292.100 87.236 C 291.715 86.727,289.375 84.305,286.900 81.855 C 284.425 79.405,280.735 75.735,278.700 73.699 C 273.787 68.785,264.930 59.928,253.802 48.800 C 251.052 46.050,247.136 42.142,245.101 40.115 C 243.065 38.089,240.590 35.534,239.600 34.437 L 237.800 32.444 155.100 32.422 L 72.400 32.400 72.400 182.400 L 72.400 332.400 63.400 332.400 L 54.400 332.400 54.400 173.400 L 54.400 14.400 173.600 14.400 L 292.800 14.400 292.800 51.281 M226.400 97.200 L 226.400 147.200 276.400 147.200 L 326.400 147.200 326.400 250.800 C 326.400 307.780,326.265 354.400,326.100 354.400 C 325.935 354.400,325.800 356.732,325.800 359.583 C 325.800 365.333,325.393 366.301,323.200 365.760 C 321.267 365.284,314.878 365.151,314.611 365.582 C 314.432 365.871,279.387 366.000,200.776 366.000 L 87.200 366.000 87.200 206.600 L 87.200 47.200 156.800 47.200 L 226.400 47.200 226.400 97.200 M242.800 60.845 C 243.350 61.517,246.747 65.000,250.348 68.585 C 253.949 72.171,257.616 75.824,258.496 76.704 C 259.376 77.584,263.066 81.274,266.696 84.904 C 274.864 93.070,275.730 93.936,283.896 102.104 C 287.526 105.734,291.216 109.424,292.096 110.304 C 292.976 111.184,296.642 114.851,300.243 118.452 C 303.844 122.053,307.557 125.764,308.495 126.698 C 311.289 129.481,313.600 131.967,313.600 132.191 C 313.600 132.306,297.310 132.400,277.400 132.400 L 241.200 132.400 241.200 96.000 C 241.200 75.980,241.335 59.605,241.500 59.612 C 241.665 59.619,242.250 60.173,242.800 60.845 M136.258 86.207 C 135.896 86.472,135.600 86.983,135.600 87.344 C 135.600 88.056,136.410 88.222,137.020 87.634 C 137.229 87.432,137.848 87.207,138.396 87.134 C 138.949 87.060,139.450 86.694,139.523 86.311 C 139.681 85.484,137.348 85.410,136.258 86.207 M133.480 86.653 C 132.918 87.215,133.224 87.600,134.233 87.600 C 134.882 87.600,135.205 87.414,135.100 87.100 C 134.908 86.522,133.892 86.241,133.480 86.653 M144.800 91.842 C 144.800 92.350,144.465 92.452,143.200 92.331 C 142.026 92.219,141.600 92.327,141.600 92.736 C 141.600 93.096,141.317 93.219,140.800 93.084 C 140.357 92.968,140.000 93.072,140.000 93.316 C 140.000 94.014,122.494 111.200,121.783 111.200 C 121.433 111.200,119.780 109.805,118.112 108.100 C 116.444 106.395,114.834 105.053,114.534 105.119 C 114.235 105.184,113.890 104.979,113.769 104.663 C 113.636 104.317,113.230 104.172,112.751 104.297 C 112.174 104.448,111.891 104.269,111.730 103.653 C 111.435 102.526,109.775 102.487,109.484 103.600 C 109.257 104.468,108.372 104.627,107.218 104.010 C 106.633 103.696,106.444 103.789,106.264 104.475 C 106.075 105.198,105.944 105.251,105.420 104.817 C 104.908 104.392,104.800 104.403,104.800 104.881 C 104.800 105.587,103.148 107.200,102.425 107.200 C 102.007 107.200,102.001 107.320,102.397 107.796 C 102.806 108.289,102.728 108.457,101.946 108.771 C 101.426 108.979,101.225 109.161,101.500 109.175 C 102.424 109.221,102.129 112.000,101.200 112.000 C 100.760 112.000,100.400 112.249,100.400 112.553 C 100.400 112.858,100.760 113.201,101.200 113.316 C 101.778 113.467,102.000 113.862,102.000 114.739 C 102.000 115.407,102.190 116.070,102.421 116.213 C 102.653 116.356,102.782 116.654,102.708 116.875 C 102.456 117.632,116.277 131.124,118.204 132.002 C 119.192 132.452,120.000 133.085,120.000 133.410 C 120.000 133.851,120.504 134.000,122.000 134.000 C 123.694 134.000,124.000 133.884,124.000 133.245 C 124.000 132.699,124.386 132.417,125.387 132.229 C 126.389 132.041,127.414 131.288,129.087 129.513 C 130.359 128.163,136.215 122.246,142.100 116.365 C 147.985 110.484,152.800 105.386,152.800 105.036 C 152.800 104.686,152.980 104.400,153.200 104.400 C 153.420 104.400,153.600 103.933,153.600 103.363 C 153.600 102.662,153.859 102.257,154.400 102.116 C 154.967 101.968,155.200 101.570,155.200 100.753 C 155.200 99.867,155.015 99.600,154.400 99.600 C 153.778 99.600,153.600 99.333,153.600 98.400 C 153.600 97.740,153.399 97.200,153.153 97.200 C 152.904 97.200,152.799 96.847,152.916 96.400 C 153.031 95.960,152.950 95.600,152.737 95.600 C 152.523 95.600,151.894 95.060,151.339 94.400 C 150.783 93.740,149.985 93.200,149.564 93.200 C 149.144 93.200,148.800 93.020,148.800 92.800 C 148.800 92.580,148.170 92.400,147.400 92.400 C 146.422 92.400,146.000 92.219,146.000 91.800 C 146.000 91.470,145.730 91.200,145.400 91.200 C 145.070 91.200,144.800 91.489,144.800 91.842 M132.000 93.400 C 132.000 93.767,132.194 94.002,132.430 93.923 C 132.667 93.844,132.860 93.609,132.860 93.400 C 132.860 93.191,132.667 92.956,132.430 92.877 C 132.194 92.798,132.000 93.033,132.000 93.400 M132.893 98.000 C 132.618 98.440,132.498 98.800,132.625 98.800 C 132.925 98.800,134.000 97.727,134.000 97.429 C 134.000 96.920,133.362 97.249,132.893 98.000 M183.000 185.600 C 183.136 185.820,184.047 186.000,185.024 186.000 C 186.001 186.000,186.800 185.820,186.800 185.600 C 186.800 185.380,185.889 185.200,184.776 185.200 C 183.529 185.200,182.848 185.353,183.000 185.600 M95.600 192.600 L 95.600 198.000 205.800 198.000 L 316.000 198.000 316.000 192.600 L 316.000 187.200 205.800 187.200 L 95.600 187.200 95.600 192.600 M95.600 211.400 L 95.600 216.800 205.800 216.800 L 316.000 216.800 316.000 211.400 L 316.000 206.000 205.800 206.000 L 95.600 206.000 95.600 211.400 M95.600 231.000 L 95.600 236.400 132.800 236.400 C 160.089 236.400,170.000 236.520,170.000 236.850 C 170.000 237.129,170.424 237.215,171.119 237.076 C 172.391 236.822,172.941 237.084,173.326 238.125 C 173.474 238.524,173.776 238.739,173.997 238.602 C 174.531 238.272,174.515 237.200,173.976 237.200 C 173.743 237.200,173.664 237.020,173.800 236.800 C 173.958 236.545,179.537 236.400,189.224 236.400 C 199.075 236.400,204.400 236.540,204.400 236.800 C 204.400 237.020,204.850 237.200,205.400 237.200 C 205.950 237.200,206.400 237.020,206.400 236.800 C 206.400 236.535,224.933 236.400,261.200 236.400 L 316.000 236.400 316.000 231.000 L 316.000 225.600 205.800 225.600 L 95.600 225.600 95.600 231.000 M208.639 239.938 C 208.500 240.161,208.582 240.465,208.820 240.612 C 209.435 240.993,209.832 240.472,209.318 239.958 C 209.031 239.671,208.807 239.664,208.639 239.938 M95.600 249.000 L 95.600 254.400 205.800 254.400 L 316.000 254.400 316.000 249.000 L 316.000 243.600 205.800 243.600 L 95.600 243.600 95.600 249.000 M198.449 266.364 C 197.203 267.147,198.511 267.601,201.725 267.502 C 204.324 267.421,205.000 267.276,205.000 266.800 C 205.000 266.112,199.439 265.742,198.449 266.364 M206.614 266.377 C 206.200 267.048,206.759 267.600,207.853 267.600 C 208.595 267.600,208.824 267.416,208.725 266.900 C 208.575 266.113,207.016 265.727,206.614 266.377 M298.000 328.600 C 298.000 328.933,298.356 329.200,298.800 329.200 C 299.244 329.200,299.600 328.933,299.600 328.600 C 299.600 328.267,299.244 328.000,298.800 328.000 C 298.356 328.000,298.000 328.267,298.000 328.600 M312.310 342.223 C 312.187 342.346,312.178 342.796,312.290 343.223 C 312.588 344.361,313.600 344.189,313.600 343.000 C 313.600 342.089,312.879 341.655,312.310 342.223 M324.000 354.167 C 324.000 354.515,324.285 354.800,324.633 354.800 C 325.340 354.800,325.217 353.939,324.475 353.692 C 324.214 353.605,324.000 353.818,324.000 354.167 M321.600 356.976 C 321.600 357.513,321.760 358.051,321.955 358.172 C 322.499 358.508,323.245 357.384,322.964 356.651 C 322.575 355.638,321.600 355.870,321.600 356.976 M320.800 361.218 C 320.800 361.447,320.492 361.582,320.115 361.518 C 319.720 361.450,319.368 361.697,319.285 362.100 C 319.121 362.898,320.021 363.031,321.226 362.386 C 322.140 361.897,322.261 360.800,321.400 360.800 C 321.070 360.800,320.800 360.988,320.800 361.218 M352.000 381.571 C 352.000 382.143,352.257 382.400,352.829 382.400 C 353.402 382.400,353.617 382.185,353.525 381.705 C 353.324 380.662,352.000 380.546,352.000 381.571 M351.500 399.083 C 349.016 399.357,349.812 400.000,352.633 400.000 C 354.561 400.000,355.223 399.866,355.102 399.500 C 354.923 398.955,353.825 398.827,351.500 399.083 " stroke="none" fill="#3c6474" fill-rule="evenodd"></path><path id="path1" d="M141.800 91.600 C 141.660 91.827,141.996 92.000,142.576 92.000 C 143.139 92.000,143.600 91.820,143.600 91.600 C 143.600 91.380,143.251 91.200,142.824 91.200 C 142.397 91.200,141.936 91.380,141.800 91.600 M146.800 91.600 C 146.800 91.820,147.351 92.000,148.024 92.000 C 148.737 92.000,149.144 91.833,149.000 91.600 C 148.864 91.380,148.313 91.200,147.776 91.200 C 147.239 91.200,146.800 91.380,146.800 91.600 M139.056 92.905 C 136.859 94.624,134.004 97.682,134.240 98.064 C 134.371 98.276,135.704 97.178,137.203 95.625 C 138.702 94.071,140.215 92.800,140.564 92.800 C 140.914 92.800,141.200 92.620,141.200 92.400 C 141.200 91.737,140.269 91.957,139.056 92.905 M149.600 92.400 C 149.600 92.620,149.852 92.800,150.160 92.800 C 150.888 92.800,153.600 95.512,153.600 96.240 C 153.600 96.548,153.783 96.800,154.008 96.800 C 154.243 96.800,154.309 97.223,154.164 97.800 C 153.974 98.556,154.070 98.800,154.557 98.800 C 155.426 98.800,155.366 97.927,154.372 96.112 C 153.030 93.664,149.600 90.995,149.600 92.400 M130.001 101.700 C 128.675 103.075,126.332 105.513,124.796 107.118 L 122.002 110.037 118.818 106.818 C 117.067 105.048,115.367 103.600,115.041 103.600 C 114.714 103.600,114.336 103.420,114.200 103.200 C 114.064 102.980,113.513 102.800,112.976 102.800 C 112.439 102.800,112.000 102.980,112.000 103.200 C 112.000 103.420,112.540 103.600,113.200 103.600 C 113.860 103.600,114.400 103.780,114.400 104.000 C 114.400 104.220,114.760 104.400,115.200 104.400 C 115.640 104.400,116.000 104.551,116.000 104.735 C 116.000 105.112,121.401 110.800,121.758 110.800 C 122.062 110.800,133.200 99.736,133.200 99.434 C 133.200 98.729,132.151 99.472,130.001 101.700 M106.800 103.200 C 106.800 103.420,107.340 103.600,108.000 103.600 C 108.660 103.600,109.200 103.420,109.200 103.200 C 109.200 102.980,108.660 102.800,108.000 102.800 C 107.340 102.800,106.800 102.980,106.800 103.200 M154.072 104.100 C 154.215 105.104,152.755 106.773,145.283 114.144 C 132.843 126.416,126.656 132.790,126.925 133.058 C 127.047 133.180,129.121 131.294,131.534 128.867 C 133.946 126.440,136.029 124.562,136.160 124.694 C 136.292 124.825,136.400 124.623,136.400 124.243 C 136.400 123.863,136.580 123.664,136.800 123.800 C 137.020 123.936,137.208 123.812,137.219 123.524 C 137.229 123.236,137.927 122.460,138.771 121.800 C 139.614 121.140,140.225 120.465,140.129 120.300 C 140.032 120.135,140.263 120.000,140.643 120.000 C 141.023 120.000,141.226 119.893,141.095 119.762 C 140.872 119.539,150.971 109.313,152.711 108.000 C 154.466 106.676,155.813 103.200,154.572 103.200 C 154.150 103.200,153.986 103.495,154.072 104.100 M102.860 105.451 C 102.343 106.002,102.017 106.550,102.136 106.669 C 102.352 106.885,104.400 105.030,104.400 104.618 C 104.400 104.147,103.756 104.495,102.860 105.451 M100.400 110.400 C 100.400 111.060,100.580 111.600,100.800 111.600 C 101.020 111.600,101.200 111.060,101.200 110.400 C 101.200 109.740,101.020 109.200,100.800 109.200 C 100.580 109.200,100.400 109.740,100.400 110.400 M100.400 115.176 C 100.400 115.603,100.580 116.064,100.800 116.200 C 101.027 116.340,101.200 116.004,101.200 115.424 C 101.200 114.861,101.020 114.400,100.800 114.400 C 100.580 114.400,100.400 114.749,100.400 115.176 M101.200 117.375 C 101.200 117.692,102.814 119.537,104.787 121.475 C 106.761 123.414,108.739 125.360,109.185 125.800 C 109.631 126.240,111.429 128.085,113.180 129.900 C 114.932 131.715,116.643 133.200,116.983 133.200 C 117.322 133.200,117.600 133.380,117.600 133.600 C 117.600 133.820,117.960 134.000,118.400 134.000 C 119.583 134.000,119.372 133.471,117.935 132.835 C 117.239 132.527,113.548 129.153,109.732 125.338 C 105.916 121.522,102.616 118.400,102.397 118.400 C 102.179 118.400,102.000 118.040,102.000 117.600 C 102.000 117.160,101.820 116.800,101.600 116.800 C 101.380 116.800,101.200 117.059,101.200 117.375 M124.400 133.600 C 124.400 133.820,124.760 134.000,125.200 134.000 C 125.640 134.000,126.000 133.820,126.000 133.600 C 126.000 133.380,125.640 133.200,125.200 133.200 C 124.760 133.200,124.400 133.380,124.400 133.600 " stroke="none" fill="#b4b4b4" fill-rule="evenodd"></path><path id="path2" d="M151.061 94.171 C 151.687 94.925,152.353 95.555,152.539 95.571 C 152.726 95.587,152.366 94.983,151.739 94.229 C 151.113 93.475,150.447 92.845,150.261 92.829 C 150.074 92.813,150.434 93.417,151.061 94.171 M133.579 99.817 C 131.501 101.916,129.716 103.761,129.613 103.917 C 129.510 104.072,131.265 102.403,133.513 100.208 C 135.761 98.012,137.600 96.167,137.600 96.108 C 137.600 95.803,137.058 96.303,133.579 99.817 M152.800 96.524 C 152.800 96.896,152.980 97.200,153.200 97.200 C 153.420 97.200,153.600 97.740,153.600 98.400 C 153.600 99.392,153.756 99.592,154.500 99.554 C 155.177 99.519,155.227 99.462,154.700 99.324 C 154.310 99.222,153.994 98.756,153.987 98.271 C 153.980 97.792,153.710 97.051,153.387 96.624 C 152.875 95.946,152.800 95.934,152.800 96.524 M153.867 102.267 C 153.720 102.413,153.600 102.953,153.600 103.467 C 153.600 103.980,153.420 104.400,153.200 104.400 C 152.980 104.400,152.800 104.760,152.800 105.200 C 152.800 105.640,152.620 106.000,152.400 106.000 C 152.180 106.000,152.000 106.191,152.000 106.424 C 152.000 106.657,152.169 106.743,152.375 106.616 C 152.867 106.312,154.000 104.026,154.000 103.339 C 154.000 103.042,154.270 102.800,154.600 102.800 C 154.930 102.800,155.200 102.620,155.200 102.400 C 155.200 101.950,154.276 101.858,153.867 102.267 M103.963 105.845 C 103.669 106.199,103.062 106.638,102.614 106.819 C 102.040 107.052,101.986 107.157,102.430 107.175 C 102.777 107.189,103.483 106.750,104.000 106.200 C 104.517 105.650,104.840 105.200,104.719 105.200 C 104.597 105.200,104.257 105.490,103.963 105.845 M101.524 110.600 C 101.434 111.370,101.504 112.000,101.680 112.000 C 101.856 112.000,102.000 111.370,102.000 110.600 C 102.000 109.830,101.930 109.200,101.844 109.200 C 101.758 109.200,101.614 109.830,101.524 110.600 M100.939 113.460 C 101.517 113.627,101.644 113.972,101.520 115.037 C 101.411 115.970,101.525 116.400,101.880 116.400 C 102.166 116.400,102.400 116.610,102.400 116.867 C 102.400 117.123,102.516 117.218,102.657 117.076 C 102.798 116.935,102.724 116.590,102.492 116.310 C 102.261 116.029,102.010 115.262,101.935 114.603 C 101.839 113.754,101.568 113.384,101.000 113.326 C 100.304 113.256,100.296 113.274,100.939 113.460 M102.441 117.700 C 102.537 117.755,103.512 118.610,104.607 119.600 L 106.600 121.400 104.817 119.500 C 103.836 118.455,102.861 117.600,102.650 117.600 C 102.439 117.600,102.345 117.645,102.441 117.700 M138.460 119.842 C 138.162 120.178,137.999 120.532,138.095 120.629 C 138.192 120.726,138.598 120.444,138.998 120.002 C 139.397 119.561,139.561 119.207,139.362 119.215 C 139.163 119.224,138.757 119.505,138.460 119.842 M136.460 121.880 C 135.943 122.415,135.597 122.930,135.692 123.025 C 135.786 123.119,136.285 122.748,136.800 122.200 C 137.315 121.652,137.661 121.137,137.568 121.055 C 137.476 120.974,136.977 121.345,136.460 121.880 M116.400 131.576 C 116.400 131.809,116.760 132.000,117.200 132.000 C 117.640 132.000,118.000 132.180,118.000 132.400 C 118.000 132.620,118.347 132.800,118.771 132.800 C 119.195 132.800,119.624 133.115,119.724 133.500 C 119.891 134.139,119.911 134.140,119.954 133.519 C 119.982 133.097,119.429 132.576,118.500 132.152 C 117.675 131.774,116.865 131.395,116.700 131.309 C 116.535 131.223,116.400 131.343,116.400 131.576 M124.900 132.282 C 124.405 132.378,124.000 132.598,124.000 132.772 C 124.000 133.181,125.943 132.815,126.230 132.352 C 126.349 132.159,126.302 132.025,126.124 132.054 C 125.946 132.084,125.395 132.187,124.900 132.282 " stroke="none" fill="#406474" fill-rule="evenodd"></path><path id="path3" d="M143.600 91.600 C 143.600 91.820,143.300 92.000,142.933 92.000 C 142.567 92.000,142.373 92.106,142.503 92.237 C 142.837 92.570,144.400 92.023,144.400 91.573 C 144.400 91.368,144.220 91.200,144.000 91.200 C 143.780 91.200,143.600 91.380,143.600 91.600 M146.501 91.600 C 146.590 91.930,147.099 92.233,147.631 92.274 C 148.395 92.332,148.431 92.301,147.800 92.128 C 147.360 92.007,146.851 91.703,146.670 91.454 C 146.451 91.154,146.394 91.204,146.501 91.600 M150.800 93.064 C 150.800 93.282,151.295 93.897,151.900 94.430 L 153.000 95.400 152.000 94.200 C 151.450 93.540,150.955 92.925,150.900 92.833 C 150.845 92.742,150.800 92.845,150.800 93.064 M137.400 95.372 C 134.758 98.100,134.480 98.768,137.008 96.314 C 138.303 95.057,139.281 93.960,139.181 93.875 C 139.082 93.790,138.280 94.464,137.400 95.372 M153.254 95.851 C 153.225 96.319,153.470 96.926,153.800 97.200 C 154.215 97.544,154.400 97.559,154.400 97.249 C 154.400 97.002,154.233 96.800,154.028 96.800 C 153.823 96.800,153.578 96.395,153.482 95.900 C 153.316 95.038,153.307 95.036,153.254 95.851 M127.275 105.556 C 124.408 108.392,121.824 110.808,121.532 110.925 C 121.133 111.084,121.151 111.145,121.606 111.168 C 121.939 111.186,124.636 108.770,127.600 105.800 C 130.564 102.830,132.876 100.400,132.737 100.400 C 132.599 100.400,130.141 102.720,127.275 105.556 M109.200 103.133 C 109.200 103.390,108.615 103.627,107.900 103.660 C 106.621 103.719,106.619 103.723,107.749 103.891 C 108.895 104.062,109.991 103.458,109.473 102.940 C 109.323 102.790,109.200 102.877,109.200 103.133 M111.606 103.300 C 111.602 103.810,111.899 103.987,112.700 103.954 C 113.543 103.918,113.613 103.861,113.000 103.707 C 112.560 103.597,112.068 103.303,111.906 103.054 C 111.720 102.766,111.610 102.856,111.606 103.300 M115.600 104.784 C 115.600 105.297,116.745 106.589,116.985 106.348 C 117.065 106.266,116.787 105.775,116.366 105.256 C 115.945 104.736,115.600 104.524,115.600 104.784 M153.084 105.600 C 152.969 106.040,152.908 106.400,152.949 106.400 C 152.989 106.400,153.330 106.040,153.707 105.600 C 154.232 104.987,154.263 104.800,153.843 104.800 C 153.541 104.800,153.199 105.160,153.084 105.600 M103.260 105.842 C 102.962 106.178,102.799 106.532,102.895 106.629 C 102.992 106.726,103.398 106.444,103.798 106.002 C 104.197 105.561,104.361 105.207,104.162 105.215 C 103.963 105.224,103.557 105.505,103.260 105.842 M146.370 112.611 C 140.406 118.618,139.246 119.863,141.536 117.800 C 144.425 115.197,152.681 106.800,152.351 106.800 C 152.234 106.800,149.543 109.415,146.370 112.611 M101.168 110.500 C 101.049 111.360,101.110 111.850,101.312 111.648 C 101.505 111.455,101.598 110.781,101.519 110.149 C 101.387 109.091,101.359 109.119,101.168 110.500 M100.654 114.306 C 100.903 114.468,101.197 114.960,101.307 115.400 C 101.461 116.013,101.518 115.943,101.554 115.100 C 101.587 114.299,101.410 114.002,100.900 114.006 C 100.456 114.010,100.366 114.120,100.654 114.306 M103.600 118.908 C 103.600 119.305,115.219 130.914,115.417 130.716 C 115.502 130.631,112.878 127.873,109.586 124.586 C 106.294 121.299,103.600 118.744,103.600 118.908 M131.075 127.870 C 128.504 130.439,126.400 132.681,126.400 132.853 C 126.400 133.126,129.036 130.541,134.581 124.829 C 135.451 123.933,136.069 123.200,135.956 123.200 C 135.842 123.200,133.645 125.302,131.075 127.870 M117.600 132.692 C 118.370 133.063,119.132 133.554,119.294 133.783 C 119.466 134.028,119.590 133.911,119.594 133.500 C 119.598 133.065,119.298 132.800,118.800 132.800 C 118.360 132.800,118.000 132.620,118.000 132.400 C 118.000 132.180,117.595 132.004,117.100 132.009 C 116.358 132.017,116.447 132.137,117.600 132.692 M124.267 133.067 C 124.120 133.213,124.003 133.528,124.006 133.767 C 124.010 134.060,124.107 134.053,124.306 133.746 C 124.468 133.497,124.960 133.203,125.400 133.093 C 126.174 132.899,126.173 132.891,125.367 132.846 C 124.908 132.821,124.413 132.920,124.267 133.067 " stroke="none" fill="#589094" fill-rule="evenodd"></path><path id="path4" d="" stroke="none" fill="#586498" fill-rule="evenodd"></path></g></svg>